<svg width="120" height="38" viewBox="0 0 120 38" fill="none" xmlns="http://www.w3.org/2000/svg">
<path d="M61.0919 9.55872C62.962 7.06672 65.39 5.66525 68.3789 5.35579C71.3664 5.04634 73.9655 5.73964 76.1778 7.43866C76.3578 7.57702 76.5453 7.73175 76.7402 7.90284C76.9365 8.07394 77.1285 8.27627 77.3204 8.50687C77.4736 8.6259 77.6135 8.76426 77.737 8.92345C77.8604 9.08264 77.9899 9.23588 78.1238 9.38019C79.5833 11.2697 80.29 13.4879 80.2438 16.035C80.1962 18.582 79.4524 20.8166 78.0092 22.7388C77.9482 22.8206 77.8828 22.9084 77.8113 23.0036C77.7399 23.0989 77.6745 23.1866 77.6135 23.267C77.5257 23.3295 77.4468 23.4068 77.3769 23.502C77.3055 23.5973 77.2386 23.685 77.1776 23.7654C75.2286 25.7694 72.9032 26.845 70.2014 26.9894C67.4982 27.1337 65.1192 26.4166 63.0617 24.838C60.7988 23.1003 59.4479 20.7288 59.009 17.7236C58.5686 14.7183 59.2634 11.9957 61.0919 9.55872ZM63.3131 17.975C63.4768 19.2991 64.2474 20.5845 65.1535 21.321C65.1788 21.3418 65.2055 21.3611 65.2308 21.3805C65.2561 21.3998 65.2814 21.4192 65.3082 21.44C65.3856 21.4995 65.4555 21.5531 65.5195 21.6022C65.5849 21.6513 65.6548 21.7063 65.7322 21.7658C66.9656 22.4978 68.4057 22.7507 70.0556 22.5246C71.7056 22.2969 73.1204 21.3969 74.2987 19.8258C75.3759 18.3916 75.8579 16.7759 75.7448 14.9816C75.6318 13.1874 74.8938 11.7681 73.5311 10.7207C72.0522 9.5855 70.5049 9.33705 68.6497 9.85479C67.0474 10.3026 65.3127 11.5255 64.4691 13.0788C63.6017 14.6751 63.1033 16.27 63.3131 17.975Z" fill="#0094FF"/>
<path d="M80.0332 26.3109L83.4268 0.105469L89.3496 0.144151L88.1653 9.89048L98.0768 0.112908L106.05 0.129273L93.435 11.8469L103.083 26.2782L95.8764 26.2827L87.6744 13.9298L86.1747 26.2737L80.0332 26.3109Z" fill="#E31E24"/>
<path d="M118.524 12.2695C118.009 11.6431 117.414 11.1179 116.74 10.6939C116.066 10.2699 115.38 9.95449 114.682 9.74769C114.416 9.68521 114.157 9.62421 113.906 9.5647C113.656 9.50519 113.394 9.46204 113.123 9.43378C111.497 9.26417 109.988 9.66438 108.6 10.6329C107.212 11.6014 106.404 13.1353 106.18 15.2361C105.997 16.9366 106.28 18.4571 107.026 19.799C107.773 21.141 109.015 22.0202 110.753 22.4353C110.82 22.4428 110.887 22.4577 110.954 22.4815C111.02 22.5053 111.086 22.5216 111.153 22.5276C111.222 22.535 111.272 22.5484 111.304 22.5692C111.336 22.5886 111.369 22.6005 111.403 22.6049C111.502 22.6481 111.6 22.6838 111.699 22.7106C111.799 22.7388 111.884 22.7552 111.951 22.7626C113.001 22.8713 114.001 22.7388 114.949 22.3654C115.898 21.992 116.788 21.4445 117.618 20.7214L117.055 25.9717C116.593 26.1265 116.134 26.2559 115.678 26.3601C115.221 26.4642 114.767 26.543 114.315 26.5981C113.721 26.7052 113.141 26.7632 112.576 26.7707C112.009 26.7796 111.472 26.7573 110.963 26.7052C108.083 26.4062 105.671 25.1788 103.727 23.0215C101.782 20.8643 100.989 18.1015 101.351 14.7347C101.702 11.4675 103.103 9.0172 105.556 7.38364C108.01 5.75156 110.677 5.08356 113.558 5.3826C113.931 5.42128 114.318 5.47781 114.721 5.55369C115.124 5.62957 115.526 5.72181 115.925 5.83041C116.457 5.98663 116.993 6.17706 117.534 6.40172C118.076 6.62637 118.588 6.88226 119.071 7.16791L118.524 12.2695Z" fill="#E31E24"/>
<path d="M35.0011 23.8622L52.8022 0L58.7265 0.0386818L57.5407 9.7865L57.0497 13.8243L55.5501 26.1683L49.4086 26.2055L51.6804 8.67217C47.3585 14.525 43.4784 20.3422 38.9452 26.1876C34.2632 33.0432 26.4971 37.145 18.1938 37.145C11.3174 37.145 4.7415 34.3257 0 29.3461L0.00446329 21.0742C3.25076 28.2482 10.3965 32.8587 18.2712 32.8587C25.0405 32.8587 31.3263 29.486 35.0011 23.8622Z" fill="#0094FF"/>
<path fill-rule="evenodd" clip-rule="evenodd" d="M35.5335 11.5881C35.5871 12.1445 35.6168 12.7084 35.6168 13.2782C35.6168 13.5579 35.6094 13.8361 35.596 14.1128C35.2747 13.5609 34.9667 13.125 34.7108 12.9256C33.6009 12.0612 31.2949 12.5299 30.496 12.8973C29.6985 13.2648 26.238 14.4193 25.1207 14.3658C24.0019 14.3137 23.8144 13.9849 21.2867 13.055C18.7605 12.1237 17.1879 12.4242 16.1242 12.634C15.0589 12.8438 12.2381 14.2095 10.4275 14.2095C8.61841 14.2095 6.58166 12.0969 4.71898 12.4108C3.65226 12.5909 2.22103 13.1964 1.1915 13.6814C1.18852 13.5475 1.18555 13.4136 1.18555 13.2782C1.18555 13.186 1.18852 13.0937 1.19001 13C1.24357 12.9702 4.14173 11.3858 5.96275 11.0748C7.79865 10.7594 9.80713 12.872 11.591 12.872C13.3763 12.872 16.1569 11.5078 17.2073 11.298C18.2561 11.0882 19.8064 10.7862 22.2984 11.7175C24.7889 12.6489 24.9749 12.9777 26.0773 13.0297C27.1797 13.0818 30.5912 11.9273 31.3782 11.5598C32.1652 11.1924 34.44 10.7237 35.5335 11.5881ZM35.3773 16.1466C35.291 16.6584 35.1824 17.1613 35.053 17.6567C33.9 17.0839 32.8511 16.5929 32.2099 16.3638C30.0898 15.6051 28.5291 16.4933 27.7302 16.8607C26.9313 17.2282 24.3084 18.6461 23.0452 18.5925C21.7836 18.5404 21.0472 17.9498 18.521 17.0184C15.9947 16.0871 14.9637 16.2879 13.9 16.4977C12.8347 16.7075 10.4826 18.4348 8.67346 18.4348C6.86285 18.4348 3.81591 16.0603 1.95323 16.3757C1.80297 16.401 1.64527 16.4352 1.4831 16.4754C1.44591 16.2775 1.41169 16.0782 1.38044 15.8773C2.38468 15.4161 3.68053 14.8865 4.66542 14.7213C6.5281 14.4059 8.56485 16.5186 10.374 16.5186C12.1846 16.5186 15.0054 15.1543 16.0706 14.9445C17.1359 14.7332 18.7069 14.4327 21.2346 15.364C23.7609 16.2939 23.9483 16.6227 25.0671 16.6763C26.1844 16.7283 29.645 15.5738 30.4439 15.2063C31.2413 14.8389 33.5489 14.3702 34.6572 15.2346C34.8685 15.3998 35.1155 15.7256 35.3773 16.1466ZM34.4519 19.5119C34.1321 20.3332 33.7527 21.1232 33.3168 21.8775C32.0031 21.2169 30.7727 20.6322 30.0556 20.3763C27.9355 19.6161 26.3734 20.5043 25.5744 20.8717C24.777 21.2392 22.0083 22.6571 20.891 22.605C19.7722 22.5514 18.8929 21.9608 16.3652 21.0294C13.839 20.0981 13.3941 19.8794 12.3304 20.0892C11.2651 20.299 8.3283 22.4473 6.51769 22.4473C5.60867 22.4473 4.38721 21.8477 3.1613 21.2913C2.66736 20.3555 2.25822 19.3691 1.94282 18.3425C3.82037 18.3039 6.64117 20.4299 8.35359 20.4299C10.1642 20.4299 12.5149 18.7026 13.5801 18.4928C14.6453 18.2815 15.6749 18.0822 18.2011 19.0135C20.7288 19.9434 21.6081 20.5355 22.7269 20.5876C23.8442 20.6397 26.6129 19.2233 27.4103 18.8558C28.2093 18.4883 29.7714 17.6002 31.8915 18.3589C32.4791 18.5687 33.4105 19.0001 34.4519 19.5119ZM32.7038 22.8594C32.2128 23.5914 31.6668 24.2817 31.0732 24.9289C30.1835 24.4959 29.3995 24.1404 28.8832 23.9559C26.7617 23.1971 25.201 24.0853 24.4021 24.4528C23.6032 24.8203 20.9906 26.8734 19.8778 26.7618C17.6908 26.5416 13.284 23.1004 11.2339 23.276C10.1449 23.3682 8.19886 25.036 6.52662 25.7412C5.8601 25.1059 5.24416 24.4171 4.68625 23.6836C5.55213 23.8383 6.36296 23.9693 6.99675 23.9693C8.80736 23.9693 11.3633 21.0711 12.6488 21.0339C14.873 20.9699 19.8406 24.6923 21.5292 24.7042C22.648 24.7102 25.2561 22.7612 26.0535 22.3937C26.8524 22.0277 28.4146 21.1381 30.5346 21.8983C31.0479 22.0813 31.823 22.4324 32.7038 22.8594ZM29.9648 26.0298C26.909 28.803 22.8533 30.4946 18.4004 30.4946C14.3136 30.4946 10.5599 29.0693 7.60673 26.6889C8.93382 25.8751 9.75357 24.8247 10.8902 24.667C13.0624 24.3635 18.4228 28.2734 19.7707 28.3358C20.8895 28.3894 23.4975 26.3943 24.2965 26.0268C25.0939 25.6594 26.656 24.7712 28.7761 25.5299C29.087 25.6415 29.4962 25.8156 29.9648 26.0298Z" fill="#0094FF"/>
</svg>
