<?xml version="1.0" standalone="no"?>
<!DOCTYPE svg PUBLIC "-//W3C//DTD SVG 20010904//EN"
 "http://www.w3.org/TR/2001/REC-SVG-20010904/DTD/svg10.dtd">
<svg version="1.0" xmlns="http://www.w3.org/2000/svg"
 width="1920.000000pt" height="1920.000000pt" viewBox="0 0 1920.000000 1920.000000"
 preserveAspectRatio="xMidYMid meet">
<metadata>
Created by potrace 1.11, written by Peter Selinger 2001-2013
</metadata>
<g transform="translate(0.000000,1920.000000) scale(0.100000,-0.100000)"
fill="#000000" stroke="none">
<path d="M8440 12633 c0 -5 -11 -21 -24 -38 -14 -16 -102 -133 -196 -260 -94
-126 -176 -237 -183 -245 -7 -8 -19 -26 -28 -40 -9 -14 -25 -35 -35 -48 -25
-30 -335 -445 -412 -551 -9 -13 -21 -29 -27 -35 -5 -7 -21 -27 -35 -46 -13
-19 -28 -39 -32 -45 -5 -5 -40 -53 -79 -105 -39 -52 -79 -106 -90 -120 -11
-14 -30 -39 -42 -56 -12 -17 -42 -58 -66 -90 -25 -33 -85 -113 -134 -179 -48
-66 -95 -128 -103 -138 -8 -10 -58 -77 -111 -150 -54 -73 -102 -137 -108 -144
-14 -17 -55 -72 -219 -293 -80 -107 -152 -204 -160 -215 -8 -11 -63 -85 -123
-165 -59 -80 -110 -147 -113 -150 -3 -3 -18 -23 -33 -46 -15 -22 -35 -49 -45
-60 -9 -11 -33 -42 -51 -69 -19 -28 -38 -52 -41 -55 -3 -3 -37 -48 -75 -100
-38 -52 -72 -97 -75 -100 -3 -3 -24 -30 -45 -60 -22 -30 -45 -62 -52 -70 -7
-8 -42 -55 -78 -105 -35 -49 -69 -95 -75 -102 -5 -7 -10 -16 -10 -20 0 -5 -12
-23 -27 -40 -16 -17 -44 -53 -63 -80 -19 -26 -42 -54 -50 -63 -8 -9 -33 -38
-55 -65 -51 -64 -254 -266 -325 -325 -30 -25 -61 -52 -70 -60 -51 -48 -337
-246 -392 -271 -16 -7 -28 -16 -28 -21 0 -4 -9 -8 -19 -8 -11 0 -21 -4 -23 -9
-5 -12 -191 -104 -326 -161 -182 -75 -414 -147 -602 -184 -14 -2 -47 -9 -75
-15 -27 -5 -77 -13 -110 -16 -33 -4 -69 -9 -80 -11 -126 -24 -558 -23 -745 1
-145 19 -342 55 -425 79 -5 2 -23 6 -40 11 -49 12 -247 76 -280 89 -51 22
-100 41 -105 41 -25 2 -364 173 -368 186 -2 5 -10 9 -18 9 -8 0 -27 8 -42 19
-15 10 -61 40 -102 67 -120 78 -247 174 -374 284 -76 66 -251 246 -335 345
-140 164 -295 401 -407 623 l-54 107 0 -661 0 -661 119 -116 c66 -63 122 -113
125 -109 3 3 6 0 6 -6 0 -6 35 -39 78 -73 42 -35 86 -71 97 -81 35 -31 195
-146 254 -183 9 -5 41 -26 71 -46 48 -31 204 -124 251 -149 112 -59 323 -160
369 -175 3 -1 14 -5 25 -10 104 -42 135 -54 170 -66 22 -7 43 -14 48 -15 4 -1
9 -3 12 -4 3 -1 8 -3 13 -4 4 -1 12 -4 17 -7 6 -3 30 -11 55 -18 25 -8 66 -20
91 -27 25 -8 55 -17 67 -19 31 -7 50 -12 102 -25 25 -6 54 -13 65 -15 11 -2
31 -7 45 -10 14 -4 34 -8 45 -10 11 -2 34 -6 50 -9 31 -6 181 -29 270 -41 226
-31 615 -35 845 -10 19 2 57 6 84 9 87 9 229 32 377 61 63 12 262 65 359 96
58 18 107 33 110 34 12 2 159 59 197 76 24 10 45 19 47 19 2 0 21 8 42 17 22
9 42 16 47 15 4 -1 7 2 7 8 0 5 6 10 13 10 13 0 234 110 317 157 100 57 310
193 395 256 89 65 142 107 160 124 11 10 34 29 50 41 117 90 320 292 492 491
36 41 190 242 223 291 8 12 71 94 139 183 67 89 132 173 142 187 11 14 44 59
74 100 30 41 62 84 70 95 27 34 54 72 176 239 65 88 126 172 136 186 10 13 89
124 175 245 87 121 164 229 172 240 23 31 184 258 198 279 7 10 23 31 36 46
12 15 22 30 22 33 0 3 28 44 63 91 34 47 120 167 192 268 71 101 133 188 138
193 4 6 49 66 98 135 49 69 96 133 104 143 8 9 33 44 55 76 22 32 47 64 55 71
12 10 13 8 10 -12 -3 -12 -7 -43 -10 -68 -3 -25 -7 -61 -10 -80 -3 -19 -7 -57
-10 -85 -3 -27 -8 -61 -10 -75 -6 -29 -15 -100 -20 -150 -2 -19 -6 -51 -9 -70
-3 -19 -7 -55 -10 -80 -12 -92 -17 -136 -22 -170 -10 -64 -25 -181 -29 -220
-5 -50 -16 -136 -20 -160 -4 -26 -11 -75 -19 -145 -3 -22 -7 -56 -10 -75 -3
-19 -8 -57 -11 -85 -4 -27 -9 -63 -11 -80 -2 -16 -6 -50 -9 -75 -3 -25 -8 -61
-10 -80 -3 -19 -7 -46 -9 -60 -2 -14 -7 -52 -11 -85 -3 -33 -8 -73 -11 -89 -3
-16 -7 -48 -9 -70 -2 -23 -6 -57 -9 -76 -3 -19 -10 -73 -16 -120 -6 -47 -13
-96 -15 -110 -2 -14 -6 -47 -10 -75 -3 -27 -8 -61 -10 -75 -2 -14 -6 -47 -10
-75 -4 -27 -8 -61 -10 -75 -2 -14 -6 -52 -10 -84 -3 -33 -8 -63 -11 -68 -6
-10 -51 -9 401 -7 209 1 426 1 483 1 97 0 102 1 103 22 0 11 2 30 4 41 4 31
16 126 20 165 1 19 6 53 9 75 13 92 24 183 30 245 4 47 13 120 22 180 6 40 10
73 19 151 3 31 7 65 9 75 2 11 7 48 10 84 7 60 12 108 21 170 10 78 15 120 20
165 3 28 7 61 10 75 2 14 7 56 10 93 4 37 8 77 10 87 2 10 6 43 9 72 4 29 8
64 10 78 2 14 7 52 11 85 7 68 12 103 20 160 3 22 8 63 11 90 7 76 19 177 30
245 2 14 6 56 9 93 4 37 9 78 11 90 3 12 7 41 9 65 2 23 7 66 11 95 3 29 8 63
9 77 1 14 5 43 9 65 3 22 9 65 12 95 3 30 7 66 9 80 3 22 10 83 20 170 2 14 6
45 9 70 7 55 13 106 22 185 3 33 8 71 10 85 3 14 7 45 9 70 3 25 7 61 10 80 2
19 7 62 11 95 3 33 8 69 10 80 3 11 7 45 10 75 3 30 7 65 9 78 2 13 7 53 11
90 3 37 8 70 11 75 2 4 1 7 -4 8 -48 6 -953 7 -953 2z"/>
<path d="M13357 12618 c-12 -7 -12 -7 -27 -136 -6 -51 -13 -102 -15 -115 -2
-12 -6 -44 -10 -72 -3 -27 -8 -63 -11 -80 -3 -16 -6 -46 -8 -65 -2 -19 -7 -62
-12 -95 -4 -33 -8 -71 -9 -85 -1 -14 -3 -25 -5 -25 -1 0 -3 -16 -5 -35 -4 -49
-12 -112 -25 -200 -6 -41 -13 -93 -16 -115 -6 -53 -12 -100 -14 -100 0 0 -3
-22 -5 -50 -3 -27 -7 -63 -9 -80 -2 -16 -7 -57 -11 -90 -4 -33 -11 -70 -16
-82 -5 -15 -5 -23 2 -23 6 0 7 -4 4 -10 -8 -12 -13 -40 -20 -104 -3 -28 -8
-62 -10 -76 -2 -14 -7 -47 -10 -75 -10 -86 -16 -139 -21 -165 -5 -27 -11 -78
-20 -155 -3 -27 -7 -57 -9 -65 -2 -8 -7 -42 -10 -75 -4 -33 -9 -76 -12 -95 -2
-19 -6 -51 -8 -70 -2 -19 -4 -37 -5 -40 -2 -3 -2 -8 -2 -11 1 -5 -6 -56 -22
-169 -3 -19 -8 -55 -11 -80 -3 -25 -7 -59 -9 -75 -3 -17 -7 -50 -10 -75 -3
-25 -8 -62 -11 -82 -2 -20 -7 -57 -9 -81 -3 -25 -12 -96 -21 -158 -9 -63 -18
-136 -21 -164 -3 -27 -9 -75 -14 -105 -5 -30 -12 -84 -16 -120 -3 -36 -8 -74
-10 -85 -4 -20 -10 -65 -19 -145 -2 -25 -7 -56 -9 -70 -3 -14 -7 -47 -10 -75
-10 -80 -17 -138 -22 -165 -2 -14 -7 -53 -10 -87 l-6 -63 485 3 c268 2 488 5
491 8 3 2 7 25 10 49 4 25 9 65 12 90 6 51 9 69 19 160 4 36 9 73 11 83 2 10
6 46 9 80 3 34 8 69 10 77 2 8 6 44 10 80 3 36 8 81 10 100 3 19 8 55 11 80 3
25 7 63 10 85 3 22 7 58 9 79 3 21 7 55 10 75 3 20 7 61 10 92 3 31 8 66 10
79 2 13 7 46 10 74 8 82 16 148 20 167 2 10 7 49 10 86 4 37 9 77 12 88 2 11
6 47 9 80 3 33 7 70 9 81 2 12 7 48 11 80 10 88 10 89 17 89 3 0 40 -52 82
-115 41 -63 80 -122 85 -130 6 -8 37 -55 70 -103 33 -49 60 -92 60 -97 0 -5 3
-10 8 -12 4 -1 27 -34 52 -73 25 -38 49 -74 53 -80 24 -30 357 -537 357 -545
0 -4 4 -10 8 -12 4 -1 79 -111 167 -243 87 -132 162 -241 167 -243 4 -2 8 -8
8 -13 0 -5 43 -73 95 -152 l95 -142 562 1 c310 1 569 2 576 3 7 0 -50 94 -127
209 -76 114 -139 211 -139 216 0 5 -4 12 -9 15 -6 3 -38 49 -73 101 -35 52
-67 97 -72 98 -4 2 -8 8 -8 13 0 8 -272 422 -298 454 -4 6 -75 111 -157 235
-82 124 -152 227 -156 230 -3 3 -8 10 -10 15 -2 6 -85 131 -184 278 -99 147
-184 275 -190 284 -5 9 -32 48 -58 87 l-48 71 58 53 c32 29 83 76 114 105 30
29 109 102 175 163 106 99 150 140 274 254 19 18 65 60 101 94 156 146 296
276 324 302 58 53 238 220 280 259 39 38 218 204 295 275 19 17 84 78 144 133
60 56 114 107 120 112 72 64 123 116 117 120 -6 3 -1191 9 -1248 6 -7 -1 -79
-67 -160 -147 -212 -209 -1090 -1075 -1271 -1253 -84 -83 -158 -151 -163 -151
-6 0 -8 4 -5 9 3 5 8 30 11 57 3 27 8 60 10 74 2 14 7 57 11 95 3 39 8 72 9
75 2 3 6 37 10 75 3 39 8 77 10 85 2 8 7 44 11 80 10 102 11 110 23 205 16
127 20 160 26 203 3 20 7 60 10 87 2 28 7 60 9 72 3 12 7 50 10 85 4 35 8 74
10 88 3 14 7 50 11 80 3 30 9 82 13 116 l8 61 -341 2 c-187 1 -396 3 -463 4
-68 1 -129 -1 -135 -5z"/>
<path d="M11077 11795 c-1 -2 -38 -5 -82 -9 -132 -11 -202 -21 -273 -40 -29
-8 -55 -15 -57 -15 -3 -1 -6 -1 -7 -2 -2 0 -10 -2 -18 -4 -22 -4 -130 -41
-170 -58 -19 -9 -38 -14 -41 -14 -4 1 -17 -7 -29 -18 -12 -11 -24 -19 -26 -17
-4 2 -48 -20 -86 -43 -9 -5 -41 -24 -70 -41 -29 -18 -63 -41 -75 -53 -12 -12
-25 -21 -28 -21 -17 0 -218 -198 -285 -280 -25 -30 -48 -56 -52 -58 -5 -2 -8
-8 -8 -13 0 -8 -20 -36 -84 -122 -22 -30 -143 -278 -164 -337 -11 -30 -23 -64
-28 -75 -4 -11 -9 -29 -11 -40 -2 -11 -8 -36 -13 -56 -50 -185 -60 -468 -24
-709 14 -99 78 -337 95 -354 5 -6 9 -20 9 -33 0 -13 5 -23 10 -23 6 0 9 -3 9
-7 -1 -5 0 -11 1 -15 1 -5 3 -11 4 -15 8 -35 136 -263 148 -263 4 0 8 -5 8
-11 0 -41 335 -391 355 -371 3 3 5 1 5 -5 0 -6 26 -28 58 -49 31 -21 59 -40
62 -43 12 -14 204 -114 275 -142 83 -34 203 -70 280 -84 11 -2 29 -6 41 -9 58
-13 236 -28 317 -26 41 0 61 0 80 0 65 -2 284 29 353 51 17 5 40 11 51 13 39
8 179 61 248 94 205 99 394 245 540 416 28 32 55 64 60 70 48 53 242 381 235
398 0 2 12 35 28 73 25 62 66 198 78 259 2 11 6 32 9 46 5 28 11 64 23 158 10
74 8 361 -3 447 -12 91 -13 100 -15 100 -1 0 -3 9 -5 20 -26 177 -136 434
-265 617 -61 86 -252 290 -330 352 -139 110 -352 226 -505 274 -132 42 -238
64 -371 77 -54 6 -253 13 -257 10z m308 -700 c185 -37 319 -108 469 -250 44
-41 116 -130 116 -143 0 -6 4 -12 8 -14 5 -1 25 -37 45 -78 47 -97 72 -177 82
-255 2 -16 7 -48 10 -70 6 -48 7 -196 0 -245 -11 -83 -17 -118 -31 -170 -8
-30 -18 -62 -21 -70 -3 -8 -7 -21 -9 -29 -8 -38 -98 -206 -150 -278 -83 -114
-198 -233 -273 -283 -13 -8 -33 -22 -45 -31 -61 -47 -228 -114 -331 -134 -111
-22 -287 -25 -395 -8 -89 14 -254 66 -280 88 -8 7 -24 15 -35 19 -38 11 -179
135 -236 206 -95 119 -161 276 -178 420 -17 151 5 358 49 465 5 11 12 31 15
45 17 65 122 278 175 355 30 43 147 166 202 212 47 38 162 113 175 113 7 0 13
3 13 8 0 4 15 13 33 21 17 7 49 22 70 32 20 10 37 16 37 13 0 -2 8 0 18 5 31
16 171 50 236 57 33 4 62 7 63 8 4 3 141 -4 168 -9z"/>
<path d="M17760 11779 c-30 -4 -78 -10 -107 -14 -42 -5 -137 -28 -283 -69
-143 -40 -400 -175 -553 -290 -177 -133 -328 -312 -424 -501 -71 -139 -138
-348 -158 -490 -3 -23 -8 -52 -11 -65 -28 -136 -22 -521 11 -660 3 -14 7 -36
9 -50 11 -78 84 -275 138 -375 15 -27 35 -65 44 -82 9 -18 20 -33 25 -33 5 0
9 -5 9 -10 0 -6 19 -36 43 -68 188 -251 453 -459 737 -577 36 -15 70 -28 75
-29 6 -2 17 -6 25 -9 51 -20 224 -63 310 -76 169 -27 453 -30 575 -7 11 2 42
7 68 10 27 4 57 9 67 11 9 2 33 6 51 9 60 9 172 36 247 58 58 17 72 26 73 42
1 12 3 30 4 41 1 11 6 54 10 95 4 41 8 82 10 90 2 8 6 49 10 90 3 41 8 86 10
100 2 14 7 54 11 90 3 36 7 76 9 90 2 14 6 57 9 95 4 39 9 83 13 99 l5 29 -33
-23 c-19 -13 -41 -31 -50 -40 -9 -9 -40 -31 -70 -50 -30 -19 -56 -37 -59 -40
-9 -11 -215 -108 -260 -123 -121 -40 -190 -51 -325 -50 -113 0 -134 3 -223 32
-35 12 -68 19 -72 16 -5 -3 -11 -1 -14 4 -3 5 -23 12 -43 17 -42 8 -41 8 -65
17 -21 8 -51 18 -58 19 -14 3 -160 85 -190 107 -196 145 -325 377 -368 661 -9
60 -9 292 0 355 9 58 16 104 21 125 30 126 58 202 104 290 25 47 49 87 54 88
5 2 9 9 9 16 0 22 138 154 214 205 76 52 235 131 261 131 9 0 25 5 35 10 44
23 184 44 300 43 97 0 155 -6 255 -29 90 -20 100 -22 100 -24 0 -1 8 -3 18 -6
59 -14 104 -33 214 -90 137 -70 276 -177 356 -274 25 -30 34 -17 41 65 4 39 9
86 11 105 3 19 7 60 10 90 3 30 7 71 9 90 8 65 26 219 31 275 2 22 7 67 10
101 l6 60 -123 61 c-68 33 -134 64 -148 68 -14 4 -29 11 -35 15 -5 4 -41 17
-80 29 -38 12 -77 25 -85 28 -8 3 -20 7 -26 8 -6 2 -49 12 -95 23 -82 20 -98
23 -189 37 -25 4 -56 9 -70 12 -44 8 -383 10 -440 2z"/>
<path d="M1008 10875 c-2 -2 -23 -5 -48 -9 -25 -3 -52 -7 -60 -9 -149 -36
-313 -101 -592 -236 l-117 -56 0 -58 c-1 -32 2 -56 7 -54 13 8 127 59 129 58
2 0 40 16 85 35 46 20 90 37 98 39 8 2 35 11 60 20 25 9 53 18 63 20 10 2 27
7 37 10 43 14 70 17 148 19 45 2 85 -1 88 -6 3 -4 9 -6 14 -3 5 3 24 -1 42 -8
18 -8 35 -14 38 -15 14 -2 51 -17 110 -44 131 -61 176 -83 205 -103 17 -11 30
-18 30 -17 0 4 33 -9 100 -38 99 -44 236 -62 335 -45 14 2 41 7 60 10 19 4 53
11 75 17 22 6 45 12 50 14 40 10 224 71 340 112 271 98 382 122 575 123 47 1
105 -2 130 -5 25 -3 61 -8 81 -11 112 -15 294 -71 499 -156 249 -102 293 -119
341 -127 50 -10 174 -8 219 2 14 4 39 9 55 12 115 20 396 107 700 217 97 35
114 40 200 54 48 8 258 9 300 1 47 -9 117 -43 153 -73 36 -30 122 -146 122
-164 0 -7 4 -10 9 -7 5 4 8 86 6 192 -3 159 -6 189 -21 205 -9 10 -22 19 -29
19 -6 0 -16 5 -23 12 -6 6 -17 13 -24 14 -162 32 -185 34 -303 20 -136 -15
-215 -38 -390 -112 -29 -12 -203 -71 -235 -80 -8 -2 -46 -13 -85 -24 -38 -11
-79 -22 -90 -25 -11 -3 -55 -13 -97 -24 -89 -22 -156 -33 -213 -34 -44 -1
-134 12 -150 21 -5 4 -17 7 -25 9 -8 1 -23 6 -35 11 -17 9 -47 21 -180 77
-215 90 -419 158 -515 171 -14 1 -41 6 -60 9 -70 12 -244 11 -333 -1 -150 -22
-173 -28 -400 -110 -229 -83 -384 -129 -488 -147 -81 -14 -195 -15 -252 -3
-49 11 -158 57 -264 112 -57 29 -103 50 -103 47 0 -3 -8 0 -17 8 -45 37 -199
93 -295 107 -32 5 -59 8 -60 7z"/>
<path d="M748 10285 c-1 -2 -20 -6 -41 -9 -56 -9 -237 -70 -367 -124 -124 -52
-117 -44 -108 -119 2 -22 11 -28 33 -23 6 1 19 4 30 6 116 24 285 -16 519
-125 138 -65 345 -150 401 -166 33 -10 69 -21 81 -25 11 -4 61 -6 110 -5 134
5 254 45 509 170 159 77 240 115 258 120 4 2 8 3 10 5 3 2 26 7 71 15 21 4 48
9 60 11 42 10 200 12 255 3 31 -5 72 -11 91 -14 107 -17 386 -113 590 -202
334 -147 417 -161 615 -109 30 7 147 52 198 74 25 11 48 18 51 14 3 -3 6 0 6
6 0 7 4 12 10 12 5 0 58 23 117 51 261 124 313 148 384 172 41 14 90 28 109
32 66 12 215 14 265 4 28 -6 60 -12 73 -15 56 -11 128 -40 272 -107 36 -17 67
-31 70 -32 3 0 45 -20 93 -44 49 -24 91 -41 94 -38 2 3 9 25 15 49 14 64 18
79 33 160 9 45 -82 161 -154 197 -58 30 -154 51 -236 52 -31 1 -170 -11 -184
-15 -9 -3 -32 -8 -51 -11 -46 -7 -132 -35 -147 -48 -7 -5 -13 -7 -13 -3 0 3
-24 -5 -53 -18 -29 -12 -77 -31 -107 -40 -30 -10 -64 -21 -75 -26 -24 -10
-114 -39 -141 -45 -10 -2 -50 -14 -89 -25 -38 -12 -77 -23 -85 -24 -9 -1 -21
-5 -28 -10 -6 -4 -12 -5 -12 -2 0 2 -15 0 -32 -5 -103 -32 -247 -42 -338 -24
-38 8 -130 41 -200 73 -50 22 -194 79 -315 124 -83 31 -213 68 -255 73 -14 2
-36 6 -50 9 -99 23 -321 23 -440 0 -14 -3 -41 -8 -60 -11 -31 -5 -166 -49
-445 -146 -198 -69 -370 -108 -485 -109 -46 -1 -146 20 -190 39 -19 8 -44 19
-55 23 -11 5 -91 43 -177 85 -155 75 -260 118 -315 131 -31 7 -169 14 -175 9z"/>
<path d="M4645 9724 c-44 -12 -81 -23 -82 -24 -2 -2 -6 -3 -10 -5 -17 -4 -51
-19 -108 -45 -119 -55 -221 -103 -290 -135 -38 -18 -106 -47 -150 -64 -44 -18
-89 -36 -100 -40 -138 -60 -299 -78 -400 -44 -11 4 -22 8 -25 8 -11 3 -52 19
-185 72 -77 31 -201 80 -275 108 -74 29 -144 56 -155 60 -11 5 -31 10 -45 12
-13 2 -29 8 -35 13 -6 5 -25 11 -42 15 -18 3 -44 10 -59 15 -15 6 -29 8 -32 6
-2 -3 -13 -1 -22 4 -27 15 -114 24 -225 24 -90 1 -129 -3 -218 -19 -45 -9
-137 -45 -216 -87 -40 -21 -80 -38 -87 -38 -8 0 -14 -4 -14 -10 0 -5 -4 -10
-9 -10 -6 0 -50 -19 -98 -41 -48 -23 -97 -46 -108 -51 -12 -5 -27 -10 -35 -11
-8 -2 -19 -5 -25 -8 -15 -9 -105 -37 -145 -46 -78 -16 -202 -7 -290 22 -47 15
-89 30 -95 34 -5 4 -29 13 -52 21 -24 7 -43 17 -43 22 0 4 -6 8 -13 8 -7 0
-71 26 -142 58 -129 58 -161 72 -180 78 -5 2 -48 17 -95 33 -96 33 -201 54
-222 44 -6 -3 3 -43 22 -88 4 -11 13 -36 20 -55 13 -38 23 -62 64 -155 62
-142 81 -172 111 -185 17 -8 55 -25 85 -39 30 -14 57 -26 60 -26 3 -1 27 -11
54 -23 27 -12 54 -22 60 -22 7 0 16 -4 21 -9 6 -4 48 -19 95 -31 96 -25 210
-24 288 4 23 8 44 15 47 16 19 1 47 12 167 67 45 21 124 59 173 85 109 58 302
153 330 164 81 30 156 36 255 21 43 -7 179 -52 325 -107 61 -22 121 -45 135
-49 43 -14 365 -143 375 -151 13 -10 220 -80 253 -87 58 -11 130 -9 186 4 70
16 192 56 255 84 25 11 62 27 81 35 59 26 71 31 215 100 77 36 145 67 150 69
6 1 37 14 69 29 52 24 116 44 198 62 83 18 237 8 358 -24 52 -13 204 -80 390
-170 l165 -80 17 21 c27 35 168 331 168 353 0 4 -34 21 -245 119 -71 33 -224
90 -273 101 -15 3 -81 7 -147 8 -98 2 -135 -2 -200 -20z"/>
<path d="M1973 9264 c-55 -15 -236 -121 -290 -171 -7 -6 -29 -21 -50 -34 -21
-13 -40 -26 -43 -29 -11 -15 -160 -110 -230 -148 -163 -87 -271 -94 -572 -37
-16 3 -28 2 -28 -1 0 -4 17 -28 37 -53 21 -25 45 -55 53 -65 8 -11 56 -61 105
-113 l90 -93 75 38 c41 21 117 64 169 95 52 31 96 57 98 57 2 0 19 11 37 25
18 14 38 25 44 25 6 0 12 3 14 8 5 11 54 39 167 94 96 47 110 51 175 51 78 -1
112 -7 162 -28 19 -8 34 -11 34 -8 0 3 6 1 13 -4 6 -6 26 -13 42 -17 31 -8
349 -163 495 -242 88 -48 281 -147 290 -149 3 0 21 -8 40 -18 78 -37 208 -79
262 -84 75 -7 129 8 248 69 98 50 106 54 177 101 23 15 44 27 46 27 2 0 51 31
108 68 92 60 240 143 254 143 2 0 25 8 50 19 123 53 262 73 390 58 91 -10 115
-16 175 -39 30 -11 66 -24 80 -29 24 -7 193 -85 251 -116 31 -16 34 -14 102
70 18 21 47 55 64 75 18 20 33 41 33 48 0 6 4 13 8 15 11 4 86 108 81 112 -11
8 -141 66 -148 66 -5 0 -14 7 -21 15 -7 9 -15 14 -17 11 -3 -2 -30 7 -61 21
-222 99 -403 111 -613 43 -97 -32 -263 -111 -332 -158 -66 -46 -241 -152 -287
-174 -14 -7 -27 -15 -30 -18 -10 -10 -124 -63 -178 -81 -87 -30 -168 -22 -287
30 -44 19 -320 155 -325 160 -3 4 -52 30 -110 60 -268 137 -415 212 -420 212
-3 1 -21 8 -40 16 -33 14 -163 62 -185 67 -10 3 -89 15 -130 20 -11 2 -43 -3
-72 -10z"/>
<path d="M1738 8694 c-2 -1 -15 -5 -30 -8 -54 -9 -152 -69 -308 -185 -88 -67
-165 -121 -170 -121 -22 0 -7 -18 46 -55 31 -22 61 -45 67 -50 49 -43 282
-181 407 -242 90 -44 260 -113 260 -106 0 3 6 1 13 -4 17 -15 186 -66 287 -88
101 -22 163 -35 200 -40 25 -3 56 -8 70 -10 62 -11 143 -17 246 -20 62 -1 117
-6 123 -9 6 -4 11 -4 11 1 0 4 35 8 78 9 76 0 223 10 272 19 14 2 42 6 64 10
58 8 229 44 267 56 19 6 45 12 59 15 39 8 230 74 288 100 29 13 55 24 58 24
14 0 254 126 335 176 84 52 226 149 239 164 3 3 25 21 50 40 25 19 63 51 84
72 36 34 38 38 20 44 -10 4 -48 19 -84 34 -81 35 -150 58 -192 65 -18 3 -46 8
-63 11 -55 11 -168 6 -255 -10 -39 -7 -140 -40 -185 -61 -27 -12 -65 -29 -82
-36 -18 -8 -33 -17 -33 -21 0 -5 -6 -8 -14 -8 -7 0 -98 -53 -202 -119 -197
-123 -374 -216 -434 -226 -62 -12 -104 -7 -167 19 -105 44 -324 154 -335 171
-4 5 -8 6 -8 1 0 -5 -7 -3 -15 4 -20 16 -126 73 -347 184 -217 109 -395 180
-485 192 -52 7 -132 12 -135 8z"/>
</g>
</svg>
